<svg xmlns="http://www.w3.org/2000/svg" xmlns:xlink="http://www.w3.org/1999/xlink" zoomAndPan="magnify" preserveAspectRatio="xMidYMid meet" version="1.0" viewBox="128.83 112.15 117.32 135.42"><defs><g/><clipPath id="5bd15112d4"><path d="M 132.898438 112.164062 L 242.398438 112.164062 L 242.398438 188.664062 L 132.898438 188.664062 Z M 132.898438 112.164062 " clip-rule="nonzero"/></clipPath></defs><g clip-path="url(#5bd15112d4)"><path fill="#231f20" d="M 208.582031 130.269531 L 203.339844 139.324219 L 187.632812 112.164062 L 171.914062 139.324219 L 166.6875 130.269531 L 132.910156 188.664062 L 242.359375 188.664062 Z M 208.582031 135.703125 L 237.609375 185.949219 L 230.28125 185.949219 L 204.917969 142.039062 Z M 187.632812 117.597656 L 201.773438 142.039062 L 187.632812 166.484375 L 173.492188 142.039062 Z M 137.628906 185.949219 L 166.652344 135.703125 L 186.0625 169.199219 L 176.367188 185.949219 Z M 179.515625 185.949219 L 187.632812 171.914062 L 195.792969 185.949219 Z M 198.898438 185.949219 L 189.199219 169.199219 L 203.339844 144.753906 L 227.167969 185.949219 Z M 198.898438 185.949219 " fill-opacity="1" fill-rule="nonzero"/></g><g fill="#000000" fill-opacity="1"><g transform="translate(139.074154, 221.246067)"><g><path d="M 15.703125 0 L 13.421875 0 L 4.21875 -13.9375 L 4.21875 0 L 1.9375 0 L 1.9375 -17.53125 L 4.21875 -17.53125 L 13.421875 -3.625 L 13.421875 -17.53125 L 15.703125 -17.53125 Z M 15.703125 0 "/></g></g></g><g fill="#000000" fill-opacity="1"><g transform="translate(161.806552, 221.246067)"><g><path d="M 9.875 0.171875 C 8.25 0.171875 6.765625 -0.207031 5.421875 -0.96875 C 4.085938 -1.726562 3.03125 -2.789062 2.25 -4.15625 C 1.46875 -5.519531 1.078125 -7.054688 1.078125 -8.765625 C 1.078125 -10.472656 1.46875 -12.007812 2.25 -13.375 C 3.03125 -14.738281 4.085938 -15.800781 5.421875 -16.5625 C 6.765625 -17.332031 8.25 -17.71875 9.875 -17.71875 C 11.519531 -17.71875 13.007812 -17.332031 14.34375 -16.5625 C 15.6875 -15.800781 16.742188 -14.742188 17.515625 -13.390625 C 18.285156 -12.035156 18.671875 -10.492188 18.671875 -8.765625 C 18.671875 -7.046875 18.285156 -5.503906 17.515625 -4.140625 C 16.742188 -2.785156 15.6875 -1.726562 14.34375 -0.96875 C 13.007812 -0.207031 11.519531 0.171875 9.875 0.171875 Z M 9.875 -1.8125 C 11.09375 -1.8125 12.191406 -2.09375 13.171875 -2.65625 C 14.148438 -3.226562 14.921875 -4.039062 15.484375 -5.09375 C 16.046875 -6.15625 16.328125 -7.378906 16.328125 -8.765625 C 16.328125 -10.171875 16.046875 -11.394531 15.484375 -12.4375 C 14.921875 -13.488281 14.15625 -14.300781 13.1875 -14.875 C 12.21875 -15.445312 11.113281 -15.734375 9.875 -15.734375 C 8.632812 -15.734375 7.523438 -15.445312 6.546875 -14.875 C 5.578125 -14.300781 4.8125 -13.488281 4.25 -12.4375 C 3.695312 -11.394531 3.421875 -10.171875 3.421875 -8.765625 C 3.421875 -7.378906 3.695312 -6.15625 4.25 -5.09375 C 4.8125 -4.039062 5.582031 -3.226562 6.5625 -2.65625 C 7.550781 -2.09375 8.65625 -1.8125 9.875 -1.8125 Z M 9.875 -1.8125 "/></g></g></g><g fill="#000000" fill-opacity="1"><g transform="translate(186.623747, 221.246067)"><g><path d="M 10.703125 -9.015625 C 11.335938 -8.921875 11.914062 -8.660156 12.4375 -8.234375 C 12.96875 -7.816406 13.390625 -7.296875 13.703125 -6.671875 C 14.015625 -6.054688 14.171875 -5.398438 14.171875 -4.703125 C 14.171875 -3.804688 13.941406 -3.003906 13.484375 -2.296875 C 13.035156 -1.585938 12.378906 -1.023438 11.515625 -0.609375 C 10.648438 -0.203125 9.632812 0 8.46875 0 L 1.9375 0 L 1.9375 -17.515625 L 8.21875 -17.515625 C 9.40625 -17.515625 10.414062 -17.316406 11.25 -16.921875 C 12.09375 -16.523438 12.722656 -15.992188 13.140625 -15.328125 C 13.554688 -14.660156 13.765625 -13.90625 13.765625 -13.0625 C 13.765625 -12.019531 13.484375 -11.160156 12.921875 -10.484375 C 12.359375 -9.804688 11.617188 -9.316406 10.703125 -9.015625 Z M 4.21875 -9.953125 L 8.0625 -9.953125 C 9.132812 -9.953125 9.960938 -10.203125 10.546875 -10.703125 C 11.140625 -11.203125 11.4375 -11.894531 11.4375 -12.78125 C 11.4375 -13.675781 11.140625 -14.375 10.546875 -14.875 C 9.960938 -15.375 9.117188 -15.625 8.015625 -15.625 L 4.21875 -15.625 Z M 8.265625 -1.890625 C 9.398438 -1.890625 10.285156 -2.15625 10.921875 -2.6875 C 11.566406 -3.226562 11.890625 -3.972656 11.890625 -4.921875 C 11.890625 -5.890625 11.550781 -6.65625 10.875 -7.21875 C 10.207031 -7.78125 9.3125 -8.0625 8.1875 -8.0625 L 4.21875 -8.0625 L 4.21875 -1.890625 Z M 8.265625 -1.890625 "/></g></g></g><g fill="#000000" fill-opacity="1"><g transform="translate(207.09554, 221.246067)"><g><path d="M 4.21875 -1.859375 L 10.34375 -1.859375 L 10.34375 0 L 1.9375 0 L 1.9375 -17.515625 L 4.21875 -17.515625 Z M 4.21875 -1.859375 "/></g></g></g><g fill="#000000" fill-opacity="1"><g transform="translate(223.020966, 221.246067)"><g><path d="M 4.21875 -15.65625 L 4.21875 -9.796875 L 10.609375 -9.796875 L 10.609375 -7.921875 L 4.21875 -7.921875 L 4.21875 -1.890625 L 11.359375 -1.890625 L 11.359375 0 L 1.9375 0 L 1.9375 -17.53125 L 11.359375 -17.53125 L 11.359375 -15.65625 Z M 4.21875 -15.65625 "/></g></g></g><g fill="#000000" fill-opacity="1"><g transform="translate(128.216607, 247.443375)"><g><path d="M 0.640625 -5.140625 C 0.640625 -6.148438 0.863281 -7.054688 1.3125 -7.859375 C 1.757812 -8.660156 2.375 -9.285156 3.15625 -9.734375 C 3.945312 -10.179688 4.816406 -10.40625 5.765625 -10.40625 C 6.890625 -10.40625 7.867188 -10.132812 8.703125 -9.59375 C 9.535156 -9.0625 10.144531 -8.296875 10.53125 -7.296875 L 8.921875 -7.296875 C 8.640625 -7.921875 8.226562 -8.398438 7.6875 -8.734375 C 7.15625 -9.066406 6.515625 -9.234375 5.765625 -9.234375 C 5.046875 -9.234375 4.398438 -9.066406 3.828125 -8.734375 C 3.265625 -8.398438 2.816406 -7.925781 2.484375 -7.3125 C 2.160156 -6.695312 2 -5.972656 2 -5.140625 C 2 -4.328125 2.160156 -3.613281 2.484375 -3 C 2.816406 -2.382812 3.265625 -1.910156 3.828125 -1.578125 C 4.398438 -1.242188 5.046875 -1.078125 5.765625 -1.078125 C 6.515625 -1.078125 7.15625 -1.238281 7.6875 -1.5625 C 8.226562 -1.894531 8.640625 -2.375 8.921875 -3 L 10.53125 -3 C 10.144531 -2.007812 9.535156 -1.242188 8.703125 -0.703125 C 7.867188 -0.171875 6.890625 0.09375 5.765625 0.09375 C 4.816406 0.09375 3.945312 -0.128906 3.15625 -0.578125 C 2.375 -1.023438 1.757812 -1.644531 1.3125 -2.4375 C 0.863281 -3.238281 0.640625 -4.140625 0.640625 -5.140625 Z M 0.640625 -5.140625 "/></g></g></g><g fill="#000000" fill-opacity="1"><g transform="translate(142.575199, 247.443375)"><g><path d="M 5.796875 0.109375 C 4.835938 0.109375 3.960938 -0.113281 3.171875 -0.5625 C 2.390625 -1.007812 1.769531 -1.632812 1.3125 -2.4375 C 0.863281 -3.238281 0.640625 -4.140625 0.640625 -5.140625 C 0.640625 -6.148438 0.863281 -7.054688 1.3125 -7.859375 C 1.769531 -8.660156 2.390625 -9.285156 3.171875 -9.734375 C 3.960938 -10.179688 4.835938 -10.40625 5.796875 -10.40625 C 6.765625 -10.40625 7.640625 -10.179688 8.421875 -9.734375 C 9.210938 -9.285156 9.832031 -8.660156 10.28125 -7.859375 C 10.726562 -7.066406 10.953125 -6.160156 10.953125 -5.140625 C 10.953125 -4.128906 10.726562 -3.222656 10.28125 -2.421875 C 9.832031 -1.628906 9.210938 -1.007812 8.421875 -0.5625 C 7.640625 -0.113281 6.765625 0.109375 5.796875 0.109375 Z M 5.796875 -1.0625 C 6.515625 -1.0625 7.160156 -1.226562 7.734375 -1.5625 C 8.304688 -1.894531 8.757812 -2.367188 9.09375 -2.984375 C 9.425781 -3.609375 9.59375 -4.328125 9.59375 -5.140625 C 9.59375 -5.972656 9.425781 -6.695312 9.09375 -7.3125 C 8.757812 -7.925781 8.304688 -8.398438 7.734375 -8.734375 C 7.171875 -9.066406 6.523438 -9.234375 5.796875 -9.234375 C 5.066406 -9.234375 4.414062 -9.066406 3.84375 -8.734375 C 3.28125 -8.398438 2.832031 -7.925781 2.5 -7.3125 C 2.164062 -6.695312 2 -5.972656 2 -5.140625 C 2 -4.328125 2.164062 -3.609375 2.5 -2.984375 C 2.832031 -2.367188 3.285156 -1.894531 3.859375 -1.5625 C 4.429688 -1.226562 5.078125 -1.0625 5.796875 -1.0625 Z M 5.796875 -1.0625 "/></g></g></g><g fill="#000000" fill-opacity="1"><g transform="translate(157.14016, 247.443375)"><g><path d="M 9.21875 0 L 7.875 0 L 2.484375 -8.1875 L 2.484375 0 L 1.140625 0 L 1.140625 -10.296875 L 2.484375 -10.296875 L 7.875 -2.125 L 7.875 -10.296875 L 9.21875 -10.296875 Z M 9.21875 0 "/></g></g></g><g fill="#000000" fill-opacity="1"><g transform="translate(170.481608, 247.443375)"><g><path d="M 4.390625 0.109375 C 3.710938 0.109375 3.101562 -0.0078125 2.5625 -0.25 C 2.03125 -0.5 1.613281 -0.835938 1.3125 -1.265625 C 1.007812 -1.691406 0.851562 -2.1875 0.84375 -2.75 L 2.265625 -2.75 C 2.316406 -2.257812 2.515625 -1.847656 2.859375 -1.515625 C 3.210938 -1.191406 3.722656 -1.03125 4.390625 -1.03125 C 5.035156 -1.03125 5.539062 -1.1875 5.90625 -1.5 C 6.269531 -1.820312 6.453125 -2.238281 6.453125 -2.75 C 6.453125 -3.132812 6.34375 -3.453125 6.125 -3.703125 C 5.914062 -3.953125 5.648438 -4.140625 5.328125 -4.265625 C 5.003906 -4.390625 4.566406 -4.523438 4.015625 -4.671875 C 3.335938 -4.847656 2.789062 -5.023438 2.375 -5.203125 C 1.96875 -5.378906 1.617188 -5.65625 1.328125 -6.03125 C 1.046875 -6.414062 0.90625 -6.925781 0.90625 -7.5625 C 0.90625 -8.125 1.046875 -8.617188 1.328125 -9.046875 C 1.609375 -9.484375 2.003906 -9.816406 2.515625 -10.046875 C 3.035156 -10.285156 3.632812 -10.40625 4.3125 -10.40625 C 5.269531 -10.40625 6.054688 -10.164062 6.671875 -9.6875 C 7.285156 -9.207031 7.632812 -8.566406 7.71875 -7.765625 L 6.234375 -7.765625 C 6.191406 -8.160156 5.988281 -8.507812 5.625 -8.8125 C 5.257812 -9.113281 4.773438 -9.265625 4.171875 -9.265625 C 3.609375 -9.265625 3.148438 -9.117188 2.796875 -8.828125 C 2.441406 -8.535156 2.265625 -8.128906 2.265625 -7.609375 C 2.265625 -7.234375 2.367188 -6.925781 2.578125 -6.6875 C 2.796875 -6.457031 3.054688 -6.28125 3.359375 -6.15625 C 3.671875 -6.03125 4.109375 -5.890625 4.671875 -5.734375 C 5.347656 -5.546875 5.894531 -5.359375 6.3125 -5.171875 C 6.726562 -4.992188 7.082031 -4.71875 7.375 -4.34375 C 7.664062 -3.96875 7.8125 -3.453125 7.8125 -2.796875 C 7.8125 -2.296875 7.675781 -1.820312 7.40625 -1.375 C 7.144531 -0.9375 6.753906 -0.578125 6.234375 -0.296875 C 5.710938 -0.0234375 5.097656 0.109375 4.390625 0.109375 Z M 4.390625 0.109375 "/></g></g></g><g fill="#000000" fill-opacity="1"><g transform="translate(182.113074, 247.443375)"><g><path d="M 2.453125 -10.28125 L 2.453125 -3.78125 C 2.453125 -2.863281 2.675781 -2.179688 3.125 -1.734375 C 3.570312 -1.296875 4.191406 -1.078125 4.984375 -1.078125 C 5.773438 -1.078125 6.390625 -1.296875 6.828125 -1.734375 C 7.273438 -2.179688 7.5 -2.863281 7.5 -3.78125 L 7.5 -10.28125 L 8.84375 -10.28125 L 8.84375 -3.796875 C 8.84375 -2.929688 8.671875 -2.207031 8.328125 -1.625 C 7.984375 -1.039062 7.519531 -0.601562 6.9375 -0.3125 C 6.351562 -0.03125 5.695312 0.109375 4.96875 0.109375 C 4.238281 0.109375 3.582031 -0.03125 3 -0.3125 C 2.414062 -0.601562 1.953125 -1.039062 1.609375 -1.625 C 1.273438 -2.207031 1.109375 -2.929688 1.109375 -3.796875 L 1.109375 -10.28125 Z M 2.453125 -10.28125 "/></g></g></g><g fill="#000000" fill-opacity="1"><g transform="translate(195.041775, 247.443375)"><g><path d="M 2.484375 -1.09375 L 6.078125 -1.09375 L 6.078125 0 L 1.140625 0 L 1.140625 -10.28125 L 2.484375 -10.28125 Z M 2.484375 -1.09375 "/></g></g></g><g fill="#000000" fill-opacity="1"><g transform="translate(204.388359, 247.443375)"><g><path d="M 7.46875 -10.28125 L 7.46875 -9.1875 L 4.65625 -9.1875 L 4.65625 0 L 3.3125 0 L 3.3125 -9.1875 L 0.5 -9.1875 L 0.5 -10.28125 Z M 7.46875 -10.28125 "/></g></g></g><g fill="#000000" fill-opacity="1"><g transform="translate(215.341727, 247.443375)"><g><path d="M 2.484375 -10.28125 L 2.484375 0 L 1.140625 0 L 1.140625 -10.28125 Z M 2.484375 -10.28125 "/></g></g></g><g fill="#000000" fill-opacity="1"><g transform="translate(221.946445, 247.443375)"><g><path d="M 9.21875 0 L 7.875 0 L 2.484375 -8.1875 L 2.484375 0 L 1.140625 0 L 1.140625 -10.296875 L 2.484375 -10.296875 L 7.875 -2.125 L 7.875 -10.296875 L 9.21875 -10.296875 Z M 9.21875 0 "/></g></g></g><g fill="#000000" fill-opacity="1"><g transform="translate(235.287897, 247.443375)"><g><path d="M 8.921875 -7.296875 C 8.640625 -7.898438 8.226562 -8.363281 7.6875 -8.6875 C 7.144531 -9.019531 6.515625 -9.1875 5.796875 -9.1875 C 5.078125 -9.1875 4.429688 -9.019531 3.859375 -8.6875 C 3.285156 -8.363281 2.832031 -7.894531 2.5 -7.28125 C 2.164062 -6.664062 2 -5.953125 2 -5.140625 C 2 -4.335938 2.164062 -3.628906 2.5 -3.015625 C 2.832031 -2.410156 3.285156 -1.941406 3.859375 -1.609375 C 4.429688 -1.285156 5.078125 -1.125 5.796875 -1.125 C 6.796875 -1.125 7.617188 -1.421875 8.265625 -2.015625 C 8.921875 -2.617188 9.300781 -3.429688 9.40625 -4.453125 L 5.3125 -4.453125 L 5.3125 -5.546875 L 10.84375 -5.546875 L 10.84375 -4.515625 C 10.757812 -3.671875 10.488281 -2.894531 10.03125 -2.1875 C 9.582031 -1.488281 8.988281 -0.929688 8.25 -0.515625 C 7.519531 -0.109375 6.703125 0.09375 5.796875 0.09375 C 4.835938 0.09375 3.960938 -0.128906 3.171875 -0.578125 C 2.390625 -1.023438 1.769531 -1.644531 1.3125 -2.4375 C 0.863281 -3.238281 0.640625 -4.140625 0.640625 -5.140625 C 0.640625 -6.148438 0.863281 -7.054688 1.3125 -7.859375 C 1.769531 -8.660156 2.390625 -9.285156 3.171875 -9.734375 C 3.960938 -10.179688 4.835938 -10.40625 5.796875 -10.40625 C 6.890625 -10.40625 7.851562 -10.132812 8.6875 -9.59375 C 9.53125 -9.050781 10.144531 -8.285156 10.53125 -7.296875 Z M 8.921875 -7.296875 "/></g></g></g></svg>